<svg width="32" height="32" viewBox="0 0 32 32" fill="none" xmlns="http://www.w3.org/2000/svg">
<path d="M31.987 8.16723C31.987 7.18322 31.904 6.20317 31.669 5.24516C31.247 3.50011 30.2521 2.16701 28.7631 1.18804C27.9971 0.688008 27.1541 0.380987 26.2582 0.219013C25.5702 0.0939863 24.8732 0.0369466 24.1752 0.0209582C24.1232 0.0159888 24.0663 0.00496939 24.0083 0H7.97775C7.77472 0.0159885 7.57177 0.0259987 7.36874 0.0360095C6.37379 0.0929775 5.3848 0.196974 4.44689 0.571983C2.6659 1.27504 1.37897 2.50407 0.628953 4.27512C0.36896 4.87411 0.237954 5.50918 0.144976 6.1552C0.0669785 6.6762 0.0249915 7.20223 0.0100113 7.7282C0.0100113 7.77018 0 7.81123 0 7.85322V24.1507C0.0100108 24.3387 0.0210307 24.5257 0.0309695 24.7137C0.0990286 25.8028 0.238964 26.8808 0.697948 27.8809C1.56298 29.7719 3.01592 31.0159 5.01087 31.615C5.56781 31.787 6.15182 31.865 6.73482 31.917C7.47476 31.99 8.21376 32 8.95369 32H23.6613C24.3592 32 25.0572 31.953 25.7552 31.865C26.8542 31.7239 27.8851 31.4009 28.8181 30.787C29.9381 30.0469 30.7821 29.0679 31.323 27.8439C31.573 27.2808 31.714 26.6828 31.818 26.0778C31.969 25.1767 32 24.2647 32 23.3537C31.995 18.2905 32 13.2284 31.995 8.16521L31.987 8.16723ZM23.4243 13.4844V21.0996C23.4243 21.6567 23.3463 22.2037 23.0963 22.7087C22.7113 23.4947 22.0863 23.9897 21.2473 24.2297C20.7834 24.3647 20.3044 24.4377 19.8204 24.4588C18.5544 24.5217 17.4555 23.6617 17.2315 22.4117C17.0385 21.3806 17.5335 20.2446 18.6164 19.7136C19.0434 19.5056 19.5074 19.3806 19.9704 19.2866C20.4753 19.1776 20.9803 19.0786 21.4803 18.9636C21.8503 18.8806 22.0893 18.6565 22.1623 18.2756C22.1833 18.1926 22.1883 18.1036 22.1883 18.0205C22.1883 15.5985 22.1883 13.1764 22.1883 10.7603C22.1883 10.6773 22.1723 10.5933 22.1523 10.5153C22.1003 10.3123 21.9543 10.1923 21.7463 10.2023C21.5323 10.2123 21.3243 10.2493 21.1163 10.2913C20.1004 10.4893 19.0854 10.6923 18.0745 10.9003L13.1426 11.8954C13.1216 11.9003 13.0956 11.9113 13.0746 11.9113C12.7046 12.0153 12.5746 12.1824 12.5586 12.5674C12.5536 12.6243 12.5586 12.6824 12.5586 12.7394C12.5536 16.2085 12.5586 19.6776 12.5536 23.1457C12.5536 23.7088 12.4906 24.2607 12.2676 24.7808C11.8977 25.6348 11.2416 26.1718 10.3566 26.4268C9.88772 26.5618 9.40872 26.6408 8.91869 26.6558C7.64278 26.7028 6.57976 25.8538 6.36183 24.5988C6.17378 23.5157 6.66878 22.3486 7.89773 21.8277C8.37674 21.6297 8.87173 21.5206 9.37674 21.4166C9.75672 21.3386 10.1427 21.2606 10.5227 21.1826C11.0326 21.0736 11.2987 20.7506 11.3247 20.2296V20.0316C11.3247 16.0835 11.3247 12.1353 11.3247 8.18725C11.3247 8.02024 11.3456 7.85423 11.3816 7.69219C11.4756 7.31221 11.7466 7.09319 12.1106 7.00418C12.4496 6.91516 12.7986 6.85322 13.1416 6.7802C14.1206 6.58221 15.0946 6.38416 16.0735 6.19114L19.0994 5.57616C19.9954 5.39914 20.8853 5.21714 21.7813 5.04011C22.0733 4.98315 22.3703 4.92013 22.6663 4.8991C23.0773 4.86316 23.3643 5.12315 23.4063 5.54015C23.4163 5.63918 23.4223 5.73813 23.4223 5.83716V13.4784L23.4243 13.4844Z" fill="url(#paint0_linear_105_1809)"/>
<path d="M12.4375 22.4375V12.4375C12.4375 12.0625 12.6458 11.8333 13.0625 11.75L21.6875 9.99998C22.1458 9.91665 22.3958 10.125 22.4375 10.625V18.25C22.4375 18.875 21.5 19.2917 19.625 19.5C16.0625 20.0625 16.625 26.0625 21.5 24.4375C23.375 23.75 23.6875 21.9375 23.6875 20.125V5.49998C23.6875 5.49998 23.6875 4.24998 22.625 4.56248L12 6.74998C12 6.74998 11.1875 6.87498 11.1875 7.87498V20.5625C11.1875 21.1875 10.25 21.6042 8.375 21.8125C4.8125 22.375 5.375 28.375 10.25 26.75C12.125 26.0625 12.4375 24.25 12.4375 22.4375Z" fill="white"/>
<defs>
<linearGradient id="paint0_linear_105_1809" x1="16" y1="0" x2="16" y2="32" gradientUnits="userSpaceOnUse">
<stop stop-color="#FB5971"/>
<stop offset="1" stop-color="#FA253D"/>
</linearGradient>
</defs>
</svg>
