<svg width="53" height="37" viewBox="0 0 53 37" fill="none" xmlns="http://www.w3.org/2000/svg">
<path d="M20.7126 25.1161L34.82 17.8178L20.7126 10.4583V25.1161Z" fill="white"/>
<path opacity="0.12" d="M20.7126 10.4583L33.0872 18.7148L34.82 17.8178L20.7126 10.4583Z" fill="#420000"/>
<path d="M51.639 7.90993C51.639 7.90993 51.1296 4.32192 49.5604 2.73178C47.5837 0.652366 45.3625 0.652366 44.3232 0.530047C37.048 0 26.1048 0 26.1048 0H26.0844C26.0844 0 15.1412 0 7.82533 0.530047C6.80641 0.652366 4.58515 0.652366 2.58806 2.73178C1.0393 4.32192 0.52984 7.90993 0.52984 7.90993C0.52984 7.90993 0 12.1503 0 16.3703V20.3253C0 24.5453 0.52984 28.7652 0.52984 28.7652C0.52984 28.7652 1.0393 32.3533 2.60844 33.9434C4.58515 36.0228 7.1936 35.9617 8.35517 36.1655C12.5328 36.5732 26.0844 36.6956 26.0844 36.6956C26.0844 36.6956 37.048 36.6752 44.3435 36.1451C45.3625 36.0228 47.5837 36.0228 49.5808 33.9434C51.1499 32.3533 51.6594 28.7652 51.6594 28.7652C51.6594 28.7652 52.1892 24.5453 52.1892 20.3253V16.3703C52.1689 12.1503 51.639 7.90993 51.639 7.90993ZM20.7045 25.1161V10.4582L34.8064 17.8177L20.7045 25.1161Z" fill="url(#paint0_linear_105_1741)"/>
<defs>
<linearGradient id="paint0_linear_105_1741" x1="6677.61" y1="6.6052e-05" x2="6677.61" y2="6607.19" gradientUnits="userSpaceOnUse">
<stop stop-color="#E52D27"/>
<stop offset="1" stop-color="#BF171D"/>
</linearGradient>
</defs>
</svg>
