<svg width="50" height="50" viewBox="0 0 50 50" fill="none" xmlns="http://www.w3.org/2000/svg">
<g clip-path="url(#clip0_105_1786)">
<path d="M25 0C11.193 0 0 11.193 0 25C0 38.8078 11.193 50 25 50C38.8078 50 50 38.8078 50 25C50 11.193 38.8078 0 25 0ZM25 46.9242C12.9383 46.9242 3.125 37.0617 3.125 24.9999C3.125 12.9382 12.9383 3.1249 25 3.1249C37.0617 3.1249 46.875 12.9382 46.875 24.9999C46.875 37.0616 37.0617 46.9242 25 46.9242ZM35.9375 23.4375H26.5625V14.0625C26.5625 13.2 25.8625 12.5 25 12.5C24.1375 12.5 23.4375 13.2 23.4375 14.0625V23.4375H14.0625C13.2 23.4375 12.5 24.1375 12.5 25C12.5 25.8625 13.2 26.5625 14.0625 26.5625H23.4375V35.9375C23.4375 36.8 24.1375 37.5 25 37.5C25.8625 37.5 26.5625 36.8 26.5625 35.9375V26.5625H35.9375C36.8 26.5625 37.5 25.8625 37.5 25C37.5 24.1375 36.8 23.4375 35.9375 23.4375Z" fill="url(#paint0_linear_105_1786)"/>
</g>
<defs>
<linearGradient id="paint0_linear_105_1786" x1="0" y1="25" x2="50" y2="25" gradientUnits="userSpaceOnUse">
<stop stop-color="#4CA1FE"/>
<stop offset="1" stop-color="#32338D"/>
</linearGradient>
<clipPath id="clip0_105_1786">
<rect width="50" height="50" fill="white"/>
</clipPath>
</defs>
</svg>
