<svg width="32" height="33" viewBox="0 0 32 33" fill="none" xmlns="http://www.w3.org/2000/svg">
<g clip-path="url(#clip0_105_1793)">
<rect y="0.5" width="32" height="32" rx="16" fill="white"/>
<path d="M16 0.5C7.1635 0.5 0 7.66362 0 16.5C0 25.337 7.16362 32.5 16 32.5C24.8371 32.5 32 25.337 32 16.5C32 7.66425 24.8371 0.500875 15.9998 0.500875L16 0.5ZM23.3374 23.5767C23.0508 24.0467 22.4355 24.1957 21.9655 23.9072C18.2089 21.6126 13.4799 21.0929 7.9105 22.3654C7.6526 22.4241 7.38195 22.3779 7.15805 22.2371C6.93415 22.0963 6.77533 21.8724 6.7165 21.6145C6.68719 21.4868 6.68334 21.3547 6.70519 21.2255C6.72703 21.0964 6.77413 20.9728 6.8438 20.8619C6.91347 20.7509 7.00433 20.6549 7.11118 20.5791C7.21803 20.5033 7.33877 20.4494 7.4665 20.4204C13.5615 19.0279 18.7894 19.6274 23.0069 22.2049C23.4769 22.4934 23.6259 23.1068 23.3374 23.5767ZM25.2957 19.2201C24.9345 19.807 24.1665 19.9924 23.58 19.6313C19.2793 16.9878 12.7234 16.2221 7.6365 17.7663C6.97675 17.9655 6.28 17.5938 6.07975 16.9351C5.881 16.2754 6.253 15.5799 6.91162 15.3794C12.7222 13.6161 19.946 14.4703 24.885 17.5053C25.4715 17.8665 25.6569 18.6344 25.2957 19.2201ZM25.4639 14.6835C20.3071 11.6205 11.7992 11.3387 6.87587 12.8333C6.08525 13.073 5.24913 12.6266 5.00962 11.836C4.77 11.045 5.21587 10.2095 6.00712 9.96912C11.6588 8.25338 21.0543 8.585 26.9911 12.1095C27.7039 12.5315 27.9369 13.45 27.5146 14.1601C27.0944 14.8714 26.1734 15.1058 25.4646 14.6835H25.4639Z" fill="#1ED760"/>
</g>
<defs>
<clipPath id="clip0_105_1793">
<rect y="0.5" width="32" height="32" rx="16" fill="white"/>
</clipPath>
</defs>
</svg>
