<svg width="264" height="38" viewBox="0 0 264 38" fill="none" xmlns="http://www.w3.org/2000/svg">
<path d="M8.39453 16H5.875V10.4922L0.933594 1.9082H3.69727L7.05664 7.93359H7.22266L10.5723 1.9082H13.3359L8.39453 10.4922V16ZM17.9866 16.2148C16.3851 16.2148 15.1286 15.7233 14.2171 14.7402C13.3057 13.7507 12.8499 12.39 12.8499 10.6582C12.8499 8.93945 13.3089 7.58529 14.2269 6.5957C15.1448 5.59961 16.3981 5.10156 17.9866 5.10156C19.5817 5.10156 20.8349 5.59635 21.7464 6.58594C22.6644 7.57552 23.1234 8.93294 23.1234 10.6582C23.1234 12.39 22.6644 13.7507 21.7464 14.7402C20.8349 15.7233 19.5817 16.2148 17.9866 16.2148ZM16.0238 13.2656C16.486 13.8776 17.1403 14.1836 17.9866 14.1836C18.833 14.1836 19.484 13.8776 19.9398 13.2656C20.402 12.6471 20.6331 11.778 20.6331 10.6582C20.6331 9.54492 20.402 8.67904 19.9398 8.06055C19.4775 7.44206 18.8265 7.13281 17.9866 7.13281C17.1403 7.13281 16.486 7.44206 16.0238 8.06055C15.5615 8.67904 15.3304 9.54492 15.3304 10.6582C15.3304 11.778 15.5615 12.6471 16.0238 13.2656ZM34.5416 5.31641V16H32.2077V14.3008H32.0416C31.5013 15.5768 30.4368 16.2148 28.8483 16.2148C27.6829 16.2148 26.7747 15.8698 26.1237 15.1797C25.4726 14.4831 25.1471 13.5098 25.1471 12.2598V5.31641H27.569V11.6543C27.569 12.4746 27.7415 13.0866 28.0866 13.4902C28.4316 13.8874 28.9655 14.0859 29.6881 14.0859C30.4694 14.0859 31.0683 13.8613 31.485 13.4121C31.9082 12.9629 32.1198 12.3379 32.1198 11.5371V5.31641H34.5416ZM42.3001 16V1.18555H44.6829V7.04492H44.8587C45.1126 6.43945 45.5195 5.96745 46.0794 5.62891C46.6393 5.29036 47.3131 5.12109 48.1009 5.12109C49.2532 5.12109 50.1516 5.4694 50.7962 6.16602C51.4472 6.86263 51.7727 7.84245 51.7727 9.10547V16H49.3509V9.68164C49.3509 8.87435 49.1686 8.26562 48.804 7.85547C48.4394 7.4388 47.9055 7.23047 47.2024 7.23047C46.4212 7.23047 45.8124 7.46484 45.3763 7.93359C44.9401 8.39583 44.722 9.01758 44.722 9.79883V16H42.3001ZM57.9762 14.2715C58.7053 14.2715 59.3141 14.0632 59.8023 13.6465C60.2906 13.2233 60.5348 12.7025 60.5348 12.084V11.2344L58.1227 11.3906C56.7945 11.4753 56.1305 11.957 56.1305 12.8359C56.1305 13.2786 56.2997 13.6302 56.6383 13.8906C56.9833 14.1445 57.4293 14.2715 57.9762 14.2715ZM57.2633 16.1758C56.2216 16.1758 55.372 15.8828 54.7145 15.2969C54.0569 14.7109 53.7281 13.9362 53.7281 12.9727C53.7281 12.0091 54.0764 11.2539 54.773 10.707C55.4762 10.1602 56.4788 9.84766 57.7809 9.76953L60.5348 9.60352V8.70508C60.5348 8.17773 60.3622 7.77409 60.0172 7.49414C59.6721 7.21419 59.1741 7.07422 58.523 7.07422C57.9632 7.07422 57.5009 7.17188 57.1363 7.36719C56.7717 7.55599 56.5341 7.82943 56.4234 8.1875H54.1383C54.2359 7.24349 54.6917 6.49479 55.5055 5.94141C56.3258 5.38151 57.3707 5.10156 58.6402 5.10156C60.0074 5.10156 61.0621 5.41732 61.8043 6.04883C62.553 6.68034 62.9273 7.56576 62.9273 8.70508V16H60.5934V14.5352H60.4273C60.1279 15.0495 59.6982 15.4531 59.1383 15.7461C58.5849 16.0326 57.9599 16.1758 57.2633 16.1758ZM74.5116 5.31641L70.7323 16H68.0663L64.2675 5.31641H66.8652L69.3359 13.5781H69.5019L71.953 5.31641H74.5116ZM80.2952 7.02539C79.5725 7.02539 78.9768 7.26302 78.508 7.73828C78.0393 8.21354 77.7789 8.8418 77.7268 9.62305H82.7561C82.7301 8.82878 82.4957 8.19727 82.053 7.72852C81.6103 7.25977 81.0243 7.02539 80.2952 7.02539ZM82.7756 13.0605H85.0705C84.8427 14.0371 84.3056 14.8086 83.4592 15.375C82.6194 15.9349 81.5745 16.2148 80.3245 16.2148C78.7554 16.2148 77.5217 15.7266 76.6233 14.75C75.7314 13.7669 75.2854 12.416 75.2854 10.6973C75.2854 8.97852 75.7346 7.61784 76.633 6.61523C77.5315 5.60612 78.7554 5.10156 80.3049 5.10156C81.8284 5.10156 83.0198 5.58008 83.8791 6.53711C84.745 7.48763 85.178 8.80599 85.178 10.4922V11.2734H77.717V11.4004C77.7496 12.2923 78.0035 12.9987 78.4788 13.5195C78.9605 14.0339 79.5985 14.291 80.3928 14.291C81.6168 14.291 82.411 13.8809 82.7756 13.0605ZM92.3016 16V5.31641H94.6356V7.02539H94.8016C95.0621 6.41341 95.4592 5.94141 95.993 5.60938C96.5334 5.27083 97.1942 5.10156 97.9755 5.10156C99.1604 5.10156 100.069 5.44661 100.7 6.13672C101.338 6.82682 101.657 7.8099 101.657 9.08594V16H99.2352V9.66211C99.2352 8.02799 98.5158 7.21094 97.077 7.21094C96.3544 7.21094 95.7815 7.44206 95.3583 7.9043C94.9351 8.36654 94.7235 8.99154 94.7235 9.7793V16H92.3016ZM108.818 16.2148C107.216 16.2148 105.96 15.7233 105.048 14.7402C104.137 13.7507 103.681 12.39 103.681 10.6582C103.681 8.93945 104.14 7.58529 105.058 6.5957C105.976 5.59961 107.229 5.10156 108.818 5.10156C110.413 5.10156 111.666 5.59635 112.577 6.58594C113.495 7.57552 113.954 8.93294 113.954 10.6582C113.954 12.39 113.495 13.7507 112.577 14.7402C111.666 15.7233 110.413 16.2148 108.818 16.2148ZM106.855 13.2656C107.317 13.8776 107.971 14.1836 108.818 14.1836C109.664 14.1836 110.315 13.8776 110.771 13.2656C111.233 12.6471 111.464 11.778 111.464 10.6582C111.464 9.54492 111.233 8.67904 110.771 8.06055C110.308 7.44206 109.657 7.13281 108.818 7.13281C107.971 7.13281 107.317 7.44206 106.855 8.06055C106.392 8.67904 106.161 9.54492 106.161 10.6582C106.161 11.778 106.392 12.6471 106.855 13.2656ZM124.74 14.2715C125.469 14.2715 126.078 14.0632 126.566 13.6465C127.055 13.2233 127.299 12.7025 127.299 12.084V11.2344L124.887 11.3906C123.558 11.4753 122.894 11.957 122.894 12.8359C122.894 13.2786 123.064 13.6302 123.402 13.8906C123.747 14.1445 124.193 14.2715 124.74 14.2715ZM124.027 16.1758C122.986 16.1758 122.136 15.8828 121.478 15.2969C120.821 14.7109 120.492 13.9362 120.492 12.9727C120.492 12.0091 120.84 11.2539 121.537 10.707C122.24 10.1602 123.243 9.84766 124.545 9.76953L127.299 9.60352V8.70508C127.299 8.17773 127.126 7.77409 126.781 7.49414C126.436 7.21419 125.938 7.07422 125.287 7.07422C124.727 7.07422 124.265 7.17188 123.9 7.36719C123.536 7.55599 123.298 7.82943 123.187 8.1875H120.902C121 7.24349 121.456 6.49479 122.269 5.94141C123.09 5.38151 124.135 5.10156 125.404 5.10156C126.771 5.10156 127.826 5.41732 128.568 6.04883C129.317 6.68034 129.691 7.56576 129.691 8.70508V16H127.357V14.5352H127.191C126.892 15.0495 126.462 15.4531 125.902 15.7461C125.349 16.0326 124.724 16.1758 124.027 16.1758ZM136.158 16.1758C134.804 16.1758 133.733 15.681 132.945 14.6914C132.158 13.6953 131.764 12.3477 131.764 10.6484C131.764 8.96224 132.158 7.62435 132.945 6.63477C133.74 5.63867 134.811 5.14062 136.158 5.14062C136.888 5.14062 137.539 5.30664 138.111 5.63867C138.684 5.9707 139.114 6.42969 139.401 7.01562H139.567V1.18555H141.988V16H139.645V14.3105H139.479C139.173 14.8965 138.727 15.3555 138.141 15.6875C137.561 16.013 136.901 16.1758 136.158 16.1758ZM138.873 8.12891C138.391 7.51042 137.737 7.20117 136.91 7.20117C136.083 7.20117 135.432 7.51042 134.957 8.12891C134.482 8.74089 134.244 9.58398 134.244 10.6582C134.244 11.7389 134.479 12.5853 134.947 13.1973C135.423 13.8092 136.077 14.1152 136.91 14.1152C137.744 14.1152 138.398 13.8092 138.873 13.1973C139.355 12.5788 139.596 11.7324 139.596 10.6582C139.596 9.59049 139.355 8.7474 138.873 8.12891ZM148.592 16.1758C147.238 16.1758 146.167 15.681 145.379 14.6914C144.592 13.6953 144.198 12.3477 144.198 10.6484C144.198 8.96224 144.592 7.62435 145.379 6.63477C146.174 5.63867 147.245 5.14062 148.592 5.14062C149.321 5.14062 149.972 5.30664 150.545 5.63867C151.118 5.9707 151.548 6.42969 151.834 7.01562H152V1.18555H154.422V16H152.079V14.3105H151.913C151.607 14.8965 151.161 15.3555 150.575 15.6875C149.995 16.013 149.334 16.1758 148.592 16.1758ZM151.307 8.12891C150.825 7.51042 150.171 7.20117 149.344 7.20117C148.517 7.20117 147.866 7.51042 147.391 8.12891C146.916 8.74089 146.678 9.58398 146.678 10.6582C146.678 11.7389 146.913 12.5853 147.381 13.1973C147.857 13.8092 148.511 14.1152 149.344 14.1152C150.178 14.1152 150.832 13.8092 151.307 13.1973C151.789 12.5788 152.03 11.7324 152.03 10.6582C152.03 9.59049 151.789 8.7474 151.307 8.12891ZM161.641 7.02539C160.919 7.02539 160.323 7.26302 159.854 7.73828C159.386 8.21354 159.125 8.8418 159.073 9.62305H164.102C164.076 8.82878 163.842 8.19727 163.399 7.72852C162.957 7.25977 162.371 7.02539 161.641 7.02539ZM164.122 13.0605H166.417C166.189 14.0371 165.652 14.8086 164.805 15.375C163.966 15.9349 162.921 16.2148 161.671 16.2148C160.102 16.2148 158.868 15.7266 157.97 14.75C157.078 13.7669 156.632 12.416 156.632 10.6973C156.632 8.97852 157.081 7.61784 157.979 6.61523C158.878 5.60612 160.102 5.10156 161.651 5.10156C163.175 5.10156 164.366 5.58008 165.225 6.53711C166.091 7.48763 166.524 8.80599 166.524 10.4922V11.2734H159.063V11.4004C159.096 12.2923 159.35 12.9987 159.825 13.5195C160.307 14.0339 160.945 14.291 161.739 14.291C162.963 14.291 163.757 13.8809 164.122 13.0605ZM172.503 16.1758C171.149 16.1758 170.078 15.681 169.29 14.6914C168.502 13.6953 168.109 12.3477 168.109 10.6484C168.109 8.96224 168.502 7.62435 169.29 6.63477C170.084 5.63867 171.155 5.14062 172.503 5.14062C173.232 5.14062 173.883 5.30664 174.456 5.63867C175.029 5.9707 175.459 6.42969 175.745 7.01562H175.911V1.18555H178.333V16H175.989V14.3105H175.823C175.517 14.8965 175.071 15.3555 174.485 15.6875C173.906 16.013 173.245 16.1758 172.503 16.1758ZM175.218 8.12891C174.736 7.51042 174.082 7.20117 173.255 7.20117C172.428 7.20117 171.777 7.51042 171.302 8.12891C170.827 8.74089 170.589 9.58398 170.589 10.6582C170.589 11.7389 170.823 12.5853 171.292 13.1973C171.767 13.8092 172.422 14.1152 173.255 14.1152C174.088 14.1152 174.743 13.8092 175.218 13.1973C175.7 12.5788 175.941 11.7324 175.941 10.6582C175.941 9.59049 175.7 8.7474 175.218 8.12891ZM185.838 8.37305C185.838 7.40951 186.235 6.625 187.029 6.01953C187.823 5.40755 188.852 5.10156 190.115 5.10156C191.385 5.10156 192.397 5.37174 193.152 5.91211C193.914 6.44596 194.337 7.19792 194.422 8.16797H192.146C192.055 7.78385 191.834 7.48438 191.482 7.26953C191.137 7.04818 190.685 6.9375 190.125 6.9375C189.565 6.9375 189.103 7.05794 188.738 7.29883C188.373 7.53971 188.191 7.85221 188.191 8.23633C188.191 8.53581 188.318 8.7832 188.572 8.97852C188.832 9.17383 189.233 9.33333 189.773 9.45703L191.658 9.88672C192.687 10.1211 193.442 10.4694 193.924 10.9316C194.405 11.3939 194.646 12.0156 194.646 12.7969C194.646 13.819 194.223 14.6458 193.377 15.2773C192.53 15.9023 191.437 16.2148 190.095 16.2148C188.761 16.2148 187.693 15.9414 186.892 15.3945C186.098 14.8477 185.655 14.0892 185.564 13.1191H187.957C188.074 13.5228 188.318 13.8353 188.689 14.0566C189.067 14.2715 189.555 14.3789 190.154 14.3789C190.766 14.3789 191.264 14.2585 191.648 14.0176C192.032 13.7702 192.224 13.4479 192.224 13.0508C192.224 12.4583 191.733 12.0547 190.75 11.8398L188.855 11.4004C187.827 11.166 187.065 10.8047 186.57 10.3164C186.082 9.82161 185.838 9.17383 185.838 8.37305ZM201.26 7.02539C200.537 7.02539 199.941 7.26302 199.473 7.73828C199.004 8.21354 198.744 8.8418 198.691 9.62305H203.721C203.695 8.82878 203.46 8.19727 203.018 7.72852C202.575 7.25977 201.989 7.02539 201.26 7.02539ZM203.74 13.0605H206.035C205.807 14.0371 205.27 14.8086 204.424 15.375C203.584 15.9349 202.539 16.2148 201.289 16.2148C199.72 16.2148 198.486 15.7266 197.588 14.75C196.696 13.7669 196.25 12.416 196.25 10.6973C196.25 8.97852 196.699 7.61784 197.598 6.61523C198.496 5.60612 199.72 5.10156 201.27 5.10156C202.793 5.10156 203.984 5.58008 204.844 6.53711C205.71 7.48763 206.143 8.80599 206.143 10.4922V11.2734H198.682V11.4004C198.714 12.2923 198.968 12.9987 199.443 13.5195C199.925 14.0339 200.563 14.291 201.357 14.291C202.581 14.291 203.376 13.8809 203.74 13.0605ZM208.254 16V5.31641H210.588V6.97656H210.754C210.904 6.44271 211.239 6.00326 211.76 5.6582C212.288 5.31315 212.893 5.14062 213.577 5.14062C214.013 5.14062 214.348 5.17643 214.582 5.24805V7.49414C214.335 7.40299 213.922 7.35742 213.342 7.35742C212.554 7.35742 211.913 7.58529 211.418 8.04102C210.924 8.49023 210.676 9.08594 210.676 9.82812V16H208.254ZM225.669 5.31641L221.889 16H219.223L215.425 5.31641H218.022L220.493 13.5781H220.659L223.11 5.31641H225.669ZM227.429 16V5.31641H229.841V16H227.429ZM228.63 3.57812C228.194 3.57812 227.836 3.45443 227.556 3.20703C227.276 2.95312 227.136 2.63086 227.136 2.24023C227.136 1.84961 227.276 1.5306 227.556 1.2832C227.836 1.0293 228.194 0.902344 228.63 0.902344C229.073 0.902344 229.431 1.0293 229.704 1.2832C229.984 1.5306 230.124 1.84961 230.124 2.24023C230.124 2.63086 229.984 2.95312 229.704 3.20703C229.431 3.45443 229.073 3.57812 228.63 3.57812ZM241.757 8.91016H239.452C239.335 8.36979 239.075 7.9401 238.671 7.62109C238.268 7.29557 237.744 7.13281 237.099 7.13281C236.266 7.13281 235.615 7.4388 235.146 8.05078C234.684 8.66276 234.452 9.52214 234.452 10.6289C234.452 11.7487 234.687 12.6211 235.156 13.2461C235.624 13.8711 236.272 14.1836 237.099 14.1836C237.73 14.1836 238.248 14.0371 238.652 13.7441C239.062 13.4512 239.329 13.028 239.452 12.4746H241.757C241.62 13.6139 241.142 14.5221 240.322 15.1992C239.508 15.8763 238.437 16.2148 237.109 16.2148C235.501 16.2148 234.247 15.7233 233.349 14.7402C232.451 13.7572 232.001 12.3867 232.001 10.6289C232.001 8.89062 232.451 7.53646 233.349 6.56641C234.247 5.58984 235.497 5.10156 237.099 5.10156C238.44 5.10156 239.518 5.44987 240.331 6.14648C241.152 6.83659 241.627 7.75781 241.757 8.91016ZM248.234 7.02539C247.511 7.02539 246.916 7.26302 246.447 7.73828C245.978 8.21354 245.718 8.8418 245.666 9.62305H250.695C250.669 8.82878 250.435 8.19727 249.992 7.72852C249.549 7.25977 248.963 7.02539 248.234 7.02539ZM250.715 13.0605H253.009C252.782 14.0371 252.244 14.8086 251.398 15.375C250.558 15.9349 249.513 16.2148 248.263 16.2148C246.694 16.2148 245.461 15.7266 244.562 14.75C243.67 13.7669 243.224 12.416 243.224 10.6973C243.224 8.97852 243.674 7.61784 244.572 6.61523C245.47 5.60612 246.694 5.10156 248.244 5.10156C249.767 5.10156 250.959 5.58008 251.818 6.53711C252.684 7.48763 253.117 8.80599 253.117 10.4922V11.2734H245.656V11.4004C245.688 12.2923 245.942 12.9987 246.418 13.5195C246.899 14.0339 247.537 14.291 248.332 14.291C249.556 14.291 250.35 13.8809 250.715 13.0605ZM254.984 8.37305C254.984 7.40951 255.382 6.625 256.176 6.01953C256.97 5.40755 257.999 5.10156 259.262 5.10156C260.531 5.10156 261.544 5.37174 262.299 5.91211C263.061 6.44596 263.484 7.19792 263.568 8.16797H261.293C261.202 7.78385 260.98 7.48438 260.629 7.26953C260.284 7.04818 259.831 6.9375 259.271 6.9375C258.712 6.9375 258.249 7.05794 257.885 7.29883C257.52 7.53971 257.338 7.85221 257.338 8.23633C257.338 8.53581 257.465 8.7832 257.719 8.97852C257.979 9.17383 258.38 9.33333 258.92 9.45703L260.805 9.88672C261.833 10.1211 262.589 10.4694 263.07 10.9316C263.552 11.3939 263.793 12.0156 263.793 12.7969C263.793 13.819 263.37 14.6458 262.523 15.2773C261.677 15.9023 260.583 16.2148 259.242 16.2148C257.908 16.2148 256.84 15.9414 256.039 15.3945C255.245 14.8477 254.802 14.0892 254.711 13.1191H257.104C257.221 13.5228 257.465 13.8353 257.836 14.0566C258.214 14.2715 258.702 14.3789 259.301 14.3789C259.913 14.3789 260.411 14.2585 260.795 14.0176C261.179 13.7702 261.371 13.4479 261.371 13.0508C261.371 12.4583 260.88 12.0547 259.896 11.8398L258.002 11.4004C256.973 11.166 256.212 10.8047 255.717 10.3164C255.229 9.82161 254.984 9.17383 254.984 8.37305ZM79.6799 27.0195L76.8284 37H74.4553L70.676 22.9082H73.303L75.7151 33.3965H75.8616L78.635 22.9082H80.8713L83.6838 33.3965H83.8205L86.2327 22.9082H88.8401L85.0608 37H82.6975L79.8264 27.0195H79.6799ZM93.3834 35.2715C94.1125 35.2715 94.7212 35.0632 95.2095 34.6465C95.6978 34.2233 95.9419 33.7025 95.9419 33.084V32.2344L93.5298 32.3906C92.2017 32.4753 91.5377 32.957 91.5377 33.8359C91.5377 34.2786 91.7069 34.6302 92.0455 34.8906C92.3905 35.1445 92.8365 35.2715 93.3834 35.2715ZM92.6705 37.1758C91.6288 37.1758 90.7792 36.8828 90.1216 36.2969C89.4641 35.7109 89.1353 34.9362 89.1353 33.9727C89.1353 33.0091 89.4836 32.2539 90.1802 31.707C90.8834 31.1602 91.886 30.8477 93.188 30.7695L95.9419 30.6035V29.7051C95.9419 29.1777 95.7694 28.7741 95.4244 28.4941C95.0793 28.2142 94.5813 28.0742 93.9302 28.0742C93.3703 28.0742 92.9081 28.1719 92.5435 28.3672C92.1789 28.556 91.9413 28.8294 91.8306 29.1875H89.5455C89.6431 28.2435 90.0988 27.4948 90.9127 26.9414C91.733 26.3815 92.7779 26.1016 94.0474 26.1016C95.4146 26.1016 96.4693 26.4173 97.2115 27.0488C97.9602 27.6803 98.3345 28.5658 98.3345 29.7051V37H96.0005V35.5352H95.8345C95.535 36.0495 95.1054 36.4531 94.5455 36.7461C93.9921 37.0326 93.3671 37.1758 92.6705 37.1758ZM100.934 37V26.3164H103.268V28.0254H103.434C103.695 27.4134 104.092 26.9414 104.626 26.6094C105.166 26.2708 105.827 26.1016 106.608 26.1016C107.793 26.1016 108.701 26.4466 109.333 27.1367C109.971 27.8268 110.29 28.8099 110.29 30.0859V37H107.868V30.6621C107.868 29.028 107.149 28.2109 105.71 28.2109C104.987 28.2109 104.414 28.4421 103.991 28.9043C103.568 29.3665 103.356 29.9915 103.356 30.7793V37H100.934ZM113.612 23.6992H116.025V26.3848H118.31V28.3184H116.025V33.5625C116.025 34.0898 116.142 34.4772 116.376 34.7246C116.611 34.9655 116.982 35.0859 117.489 35.0859C117.711 35.0859 117.984 35.0697 118.31 35.0371V36.9316C117.906 37.0098 117.483 37.0488 117.04 37.0488C115.816 37.0488 114.937 36.8242 114.404 36.375C113.876 35.9258 113.612 35.1836 113.612 34.1484V28.3184H111.923V26.3848H113.612V23.6992ZM126.195 23.6992H128.607V26.3848H130.892V28.3184H128.607V33.5625C128.607 34.0898 128.724 34.4772 128.959 34.7246C129.193 34.9655 129.564 35.0859 130.072 35.0859C130.293 35.0859 130.567 35.0697 130.892 35.0371V36.9316C130.489 37.0098 130.066 37.0488 129.623 37.0488C128.399 37.0488 127.52 36.8242 126.986 36.375C126.459 35.9258 126.195 35.1836 126.195 34.1484V28.3184H124.506V26.3848H126.195V23.6992ZM137.506 37.2148C135.904 37.2148 134.648 36.7233 133.736 35.7402C132.825 34.7507 132.369 33.39 132.369 31.6582C132.369 29.9395 132.828 28.5853 133.746 27.5957C134.664 26.5996 135.917 26.1016 137.506 26.1016C139.101 26.1016 140.354 26.5964 141.266 27.5859C142.184 28.5755 142.643 29.9329 142.643 31.6582C142.643 33.39 142.184 34.7507 141.266 35.7402C140.354 36.7233 139.101 37.2148 137.506 37.2148ZM135.543 34.2656C136.005 34.8776 136.66 35.1836 137.506 35.1836C138.352 35.1836 139.003 34.8776 139.459 34.2656C139.921 33.6471 140.152 32.778 140.152 31.6582C140.152 30.5449 139.921 29.679 139.459 29.0605C138.997 28.4421 138.346 28.1328 137.506 28.1328C136.66 28.1328 136.005 28.4421 135.543 29.0605C135.081 29.679 134.85 30.5449 134.85 31.6582C134.85 32.778 135.081 33.6471 135.543 34.2656ZM153.429 35.2715C154.158 35.2715 154.766 35.0632 155.255 34.6465C155.743 34.2233 155.987 33.7025 155.987 33.084V32.2344L153.575 32.3906C152.247 32.4753 151.583 32.957 151.583 33.8359C151.583 34.2786 151.752 34.6302 152.091 34.8906C152.436 35.1445 152.882 35.2715 153.429 35.2715ZM152.716 37.1758C151.674 37.1758 150.824 36.8828 150.167 36.2969C149.509 35.7109 149.18 34.9362 149.18 33.9727C149.18 33.0091 149.529 32.2539 150.225 31.707C150.929 31.1602 151.931 30.8477 153.233 30.7695L155.987 30.6035V29.7051C155.987 29.1777 155.815 28.7741 155.47 28.4941C155.124 28.2142 154.626 28.0742 153.975 28.0742C153.415 28.0742 152.953 28.1719 152.589 28.3672C152.224 28.556 151.986 28.8294 151.876 29.1875H149.591C149.688 28.2435 150.144 27.4948 150.958 26.9414C151.778 26.3815 152.823 26.1016 154.093 26.1016C155.46 26.1016 156.514 26.4173 157.257 27.0488C158.005 27.6803 158.38 28.5658 158.38 29.7051V37H156.046V35.5352H155.88C155.58 36.0495 155.151 36.4531 154.591 36.7461C154.037 37.0326 153.412 37.1758 152.716 37.1758ZM164.847 37.1758C163.493 37.1758 162.422 36.681 161.634 35.6914C160.846 34.6953 160.452 33.3477 160.452 31.6484C160.452 29.9622 160.846 28.6243 161.634 27.6348C162.428 26.6387 163.499 26.1406 164.847 26.1406C165.576 26.1406 166.227 26.3066 166.8 26.6387C167.373 26.9707 167.803 27.4297 168.089 28.0156H168.255V22.1855H170.677V37H168.333V35.3105H168.167C167.861 35.8965 167.415 36.3555 166.829 36.6875C166.25 37.013 165.589 37.1758 164.847 37.1758ZM167.562 29.1289C167.08 28.5104 166.426 28.2012 165.599 28.2012C164.772 28.2012 164.121 28.5104 163.646 29.1289C163.17 29.7409 162.933 30.584 162.933 31.6582C162.933 32.7389 163.167 33.5853 163.636 34.1973C164.111 34.8092 164.765 35.1152 165.599 35.1152C166.432 35.1152 167.086 34.8092 167.562 34.1973C168.043 33.5788 168.284 32.7324 168.284 31.6582C168.284 30.5905 168.043 29.7474 167.562 29.1289ZM177.281 37.1758C175.927 37.1758 174.856 36.681 174.068 35.6914C173.28 34.6953 172.886 33.3477 172.886 31.6484C172.886 29.9622 173.28 28.6243 174.068 27.6348C174.862 26.6387 175.933 26.1406 177.281 26.1406C178.01 26.1406 178.661 26.3066 179.234 26.6387C179.807 26.9707 180.236 27.4297 180.523 28.0156H180.689V22.1855H183.111V37H180.767V35.3105H180.601C180.295 35.8965 179.849 36.3555 179.263 36.6875C178.684 37.013 178.023 37.1758 177.281 37.1758ZM179.996 29.1289C179.514 28.5104 178.859 28.2012 178.033 28.2012C177.206 28.2012 176.555 28.5104 176.08 29.1289C175.604 29.7409 175.367 30.584 175.367 31.6582C175.367 32.7389 175.601 33.5853 176.07 34.1973C176.545 34.8092 177.199 35.1152 178.033 35.1152C178.866 35.1152 179.52 34.8092 179.996 34.1973C180.477 33.5788 180.718 32.7324 180.718 31.6582C180.718 30.5905 180.477 29.7474 179.996 29.1289ZM185.125 26.7852C185.164 25.5938 185.58 24.6302 186.375 23.8945C187.176 23.1589 188.282 22.791 189.695 22.791C191.023 22.791 192.097 23.1361 192.918 23.8262C193.745 24.5163 194.158 25.4049 194.158 26.4922C194.158 27.8919 193.468 29.002 192.088 29.8223C191.45 30.1999 191.017 30.5449 190.789 30.8574C190.561 31.1634 190.447 31.5573 190.447 32.0391V32.5957H188.181L188.172 31.9316C188.126 31.209 188.247 30.6068 188.533 30.125C188.826 29.6432 189.314 29.2005 189.998 28.7969C190.61 28.4258 191.033 28.084 191.267 27.7715C191.502 27.4525 191.619 27.0553 191.619 26.5801C191.619 26.0658 191.43 25.6458 191.052 25.3203C190.675 24.9948 190.18 24.832 189.568 24.832C188.943 24.832 188.439 25.0078 188.054 25.3594C187.67 25.7109 187.459 26.1862 187.42 26.7852H185.125ZM189.422 37.2539C188.933 37.2539 188.539 37.1139 188.24 36.834C187.947 36.5475 187.801 36.1699 187.801 35.7012C187.801 35.2259 187.947 34.8483 188.24 34.5684C188.539 34.2819 188.933 34.1387 189.422 34.1387C189.916 34.1387 190.31 34.2819 190.603 34.5684C190.896 34.8483 191.043 35.2259 191.043 35.7012C191.043 36.1699 190.896 36.5475 190.603 36.834C190.31 37.1139 189.916 37.2539 189.422 37.2539Z" fill="#969696"/>
</svg>
